<?xml version="1.0" standalone="no"?>
<!DOCTYPE svg PUBLIC "-//W3C//DTD SVG 20010904//EN"
 "http://www.w3.org/TR/2001/REC-SVG-20010904/DTD/svg10.dtd">
<svg version="1.0" xmlns="http://www.w3.org/2000/svg"
 width="92.000000pt" height="92.000000pt" viewBox="0 0 92.000000 92.000000"
 preserveAspectRatio="xMidYMid meet">
<metadata>
Created by potrace 1.14, written by Peter Selinger 2001-2017
</metadata>
<g transform="translate(0.000000,92.000000) scale(0.100000,-0.100000)"
fill="#000000" stroke="none">
<path d="M441 911 c-20 -13 -6 -61 18 -61 29 0 45 25 31 49 -11 22 -27 26 -49
12z"/>
<path d="M274 865 c-110 -37 -140 -69 -122 -134 7 -23 6 -42 -1 -58 -19 -42
-12 -79 24 -133 20 -29 34 -54 33 -55 -2 -1 -18 -7 -35 -14 -32 -13 -33 -16
-33 -67 0 -30 2 -54 4 -54 2 0 40 15 84 34 l79 34 28 -22 28 -23 -109 -40
-109 -41 -3 -51 c-2 -28 0 -51 5 -51 15 0 147 54 224 91 44 22 82 39 84 39 3
0 35 -14 72 -31 89 -41 147 -67 206 -90 l47 -19 0 54 0 53 -111 43 c-111 44
-111 44 -89 62 29 24 37 23 115 -12 37 -17 71 -30 76 -30 5 0 9 24 9 54 0 53
-1 55 -35 66 -19 6 -35 13 -35 15 0 2 16 26 35 55 38 56 45 103 21 135 -11 15
-11 25 -1 49 6 17 9 42 6 56 -11 43 -93 84 -207 106 -31 6 -34 4 -34 -19 0
-22 6 -26 43 -32 63 -11 147 -45 147 -59 0 -15 -24 -39 -31 -32 -9 9 -149 43
-154 38 -3 -3 -5 -15 -5 -27 0 -18 9 -23 61 -34 74 -15 71 -21 -46 -82 l-85
-44 -85 44 c-117 61 -120 67 -46 82 57 12 61 15 61 42 0 15 -4 26 -9 23 -5 -3
-25 -8 -46 -12 -20 -3 -54 -12 -75 -19 -39 -14 -60 -6 -60 21 0 14 91 51 150
60 34 6 40 10 40 30 0 20 -5 23 -27 22 -16 -2 -55 -12 -89 -23z m68 -305 c19
0 5 -19 -22 -30 -28 -11 -32 -10 -67 21 -57 49 -85 90 -72 105 8 9 27 0 82
-42 40 -30 75 -54 79 -54z m398 70 c-12 -22 -101 -110 -111 -110 -4 0 -21 6
-39 13 l-32 14 49 31 c26 18 64 45 83 61 25 21 38 27 47 19 9 -7 10 -16 3 -28z
m-250 -155 c17 -9 30 -17 30 -20 0 -2 -12 -10 -28 -17 -23 -12 -33 -12 -62 0
l-34 14 24 19 c30 23 33 23 70 4z"/>
<path d="M442 791 c-21 -13 -11 -55 14 -59 30 -4 48 21 34 47 -11 22 -27 26
-48 12z"/>
<path d="M140 91 c0 -42 5 -73 11 -77 21 -13 72 -14 86 -3 15 14 19 139 3 139
-21 0 -24 -7 -23 -57 1 -50 -1 -53 -24 -53 -23 0 -24 3 -20 51 3 41 0 52 -15
60 -17 9 -18 4 -18 -60z"/>
<path d="M280 146 c-5 -5 -10 -36 -10 -68 0 -64 14 -80 70 -76 22 2 30 7 30
21 0 11 -6 18 -17 16 -44 -4 -49 0 -50 41 -1 41 4 45 50 41 10 -2 17 5 17 16
0 15 -8 19 -40 19 -22 0 -44 -4 -50 -10z"/>
<path d="M419 133 c-14 -36 -39 -116 -39 -125 0 -17 32 -6 37 12 6 23 53 29
53 6 0 -16 27 -29 34 -17 7 11 -34 134 -48 143 -19 13 -26 9 -37 -19z m31 -50
c0 -19 -3 -24 -10 -17 -6 6 -8 18 -4 27 9 24 14 21 14 -10z"/>
<path d="M530 146 c-14 -14 -12 -60 2 -74 7 -7 22 -12 35 -12 15 0 21 -5 17
-14 -4 -9 -15 -12 -35 -9 -24 3 -29 1 -29 -16 0 -17 6 -21 34 -21 38 0 66 21
66 50 0 24 -26 50 -51 50 -10 0 -19 5 -19 10 0 6 15 10 34 10 26 0 34 4 32 17
-3 19 -69 26 -86 9z"/>
<path d="M633 145 c0 -8 9 -17 19 -21 15 -4 18 -16 18 -66 0 -80 24 -75 28 6
3 48 6 59 23 63 36 10 13 28 -38 30 -37 2 -50 -1 -50 -12z"/>
<path d="M748 89 c-2 -43 1 -74 8 -80 19 -15 24 2 24 78 0 56 -3 73 -14 73
-11 0 -15 -18 -18 -71z"/>
</g>
</svg>
