<svg>

<symbol id="roket" xmlns="http://www.w3.org/2000/svg" viewBox="0 0 50.02 50.02">
  <g id="startup_1_" data-name="startup (1)" transform="translate(1 1.02)">
    <path id="Path_4" data-name="Path 4" d="M31.778,44.4l-5.6,5.6V37.223c-4.215,1.207-7.873.862-10.067-1.331S13.57,30.04,14.777,25.825H2l5.6-5.6a7.868,7.868,0,0,1,10.067-.948,43.651,43.651,0,0,1,6.876-8.812c9.348-9.348,25.43-8.438,25.43-8.438s.91,16.082-8.438,25.43a43.678,43.678,0,0,1-8.812,6.876A7.868,7.868,0,0,1,31.778,44.4Z" transform="translate(-2 -2)" fill="none" stroke="#004f9f" stroke-linecap="round" stroke-linejoin="round" stroke-miterlimit="10" stroke-width="2"/>
    <circle id="Ellipse_1" data-name="Ellipse 1" cx="4.064" cy="4.064" r="4.064" transform="translate(30.939 8.933)" fill="none" stroke="#004f9f" stroke-linecap="round" stroke-linejoin="round" stroke-miterlimit="10" stroke-width="2"/>
    <path id="Path_5" data-name="Path 5" d="M13.653,44.717c-1.76,1.758-8.662,2.292-8.662,2.292s.534-6.9,2.292-8.662a4.5,4.5,0,0,1,6.37,6.37ZM40.3,2.82a12.758,12.758,0,0,0,8.95,8.51" transform="translate(-2 -2)" fill="none" stroke="#004f9f" stroke-linecap="round" stroke-linejoin="round" stroke-miterlimit="10" stroke-width="2"/>
    <path id="Path_6" data-name="Path 6" d="M31.778,44.4l-5.6,5.6V37.223c-4.215,1.207-7.873.862-10.067-1.331S13.57,30.04,14.777,25.825H2l5.6-5.6a7.868,7.868,0,0,1,10.067-.948,43.651,43.651,0,0,1,6.876-8.812c9.348-9.348,25.43-8.438,25.43-8.438s.91,16.082-8.438,25.43a43.678,43.678,0,0,1-8.812,6.876A7.868,7.868,0,0,1,31.778,44.4Z" transform="translate(-2 -2)" fill="none" stroke="#004f9f" stroke-linecap="round" stroke-linejoin="round" stroke-miterlimit="10" stroke-width="2"/>
    <circle id="Ellipse_2" data-name="Ellipse 2" cx="4.064" cy="4.064" r="4.064" transform="translate(30.939 8.933)" fill="none" stroke="#004f9f" stroke-linecap="round" stroke-linejoin="round" stroke-miterlimit="10" stroke-width="2"/>
    <path id="Path_7" data-name="Path 7" d="M13.653,44.717c-1.76,1.758-8.662,2.292-8.662,2.292s.534-6.9,2.292-8.662a4.5,4.5,0,0,1,6.37,6.37ZM40.3,2.82a12.758,12.758,0,0,0,8.95,8.51" transform="translate(-2 -2)" fill="none" stroke="#004f9f" stroke-linecap="round" stroke-linejoin="round" stroke-miterlimit="10" stroke-width="2"/>
  </g>
</symbol>



<symbol id="investment" xmlns="http://www.w3.org/2000/svg" viewBox="0 0 49.992 49.996">
  <path id="Path_1" data-name="Path 1" d="M7.669,27.57a1.666,1.666,0,0,0-1.657-1.558H2.175A1.673,1.673,0,0,0,.5,27.683V41.729A1.673,1.673,0,0,0,2.175,43.4H6.012a1.668,1.668,0,0,0,1.521-.993L20.566,49.05a13.166,13.166,0,0,0,11.068.433c5-2.08,13.875-5.906,17.125-8.161a4.067,4.067,0,0,0,1.076-5.554l0-.007-.019-.028a4.05,4.05,0,0,0-4.564-1.453c-.858.284-2.657.875-4.615,1.5a14.18,14.18,0,0,0,.591-22.038,3.317,3.317,0,0,0,.272-.233,3.454,3.454,0,0,0-2.444-5.89H38.99l1.136-3.242a1.9,1.9,0,0,0-.238-1.746A1.977,1.977,0,0,0,38.281,1.8a1.575,1.575,0,0,0-1.343.661l-.165-.377a2.571,2.571,0,0,0-4.443-.536,1,1,0,0,0-.094.122.567.567,0,0,1-.485.26.576.576,0,0,1-.483-.259,2.576,2.576,0,0,0-4.515.381l-.087.4a2,2,0,0,0-3.053.181,1.894,1.894,0,0,0-.235,1.748l1.147,3.278A3.415,3.415,0,0,0,21.46,11.07a3.457,3.457,0,0,0,1.271,2.68,14.132,14.132,0,0,0-4.612,13.815ZM5.68,41.4H2.5V28.012H5.68Zm40.192-5.22a2.03,2.03,0,0,1,2.277.667h0l.015.023a2.055,2.055,0,0,1-.545,2.808c-3.1,2.15-11.827,5.909-16.755,7.959a11.282,11.282,0,0,1-9.391-.369L7.681,40.237V29.57h10.46c4.432,0,4,4.643,9.491,4.643h5.652a2.008,2.008,0,0,1,1.967,1.552A1.844,1.844,0,0,1,33.439,37.9H20.346a1,1,0,0,0,0,2H33.439C34.654,39.9,44.628,36.591,45.872,36.18ZM26.611,4.45a1.9,1.9,0,0,0,1.778-1.171l.193-.422a.562.562,0,0,1,.528-.35.568.568,0,0,1,.485.263,2.582,2.582,0,0,0,4.222.126,1,1,0,0,0,.1-.13A.558.558,0,0,1,34.4,2.5a.572.572,0,0,1,.536.367l.165.379a1.939,1.939,0,0,0,1.788,1.19,1.914,1.914,0,0,0,1.265-.476L36.871,7.62H26.63L25.35,3.962A1.9,1.9,0,0,0,26.611,4.45ZM23.9,10.039c.6-.61,1.34-.361,2.024-.419H39.051a1.456,1.456,0,0,1,.092,2.909H24.92l-.134-.005A1.458,1.458,0,0,1,23.46,11.07,1.422,1.422,0,0,1,23.9,10.039Zm1.089,4.491H38.978a12.187,12.187,0,0,1-1.732,21,3.879,3.879,0,0,0-3.807-3.313h-.154l-.023,0H27.63a5.018,5.018,0,0,1-3.113-1.09c-.015-.012-.031-.022-.046-.034-.929-.753-1.655-2.436-4.222-3.205A12.21,12.21,0,0,1,24.985,14.53Z" transform="translate(-0.504 -0.502)" fill="#76b82b"/>
  <path id="Path_2" data-name="Path 2" d="M31.984,32.021a8.5,8.5,0,1,0-8.5-8.5A8.509,8.509,0,0,0,31.984,32.021Zm0-15a6.5,6.5,0,1,1-6.5,6.5A6.507,6.507,0,0,1,31.984,17.021Z" transform="translate(-0.504 -0.502)" fill="#76b82b"/>
  <path id="Path_3" data-name="Path 3" d="M30.055,25.669a.418.418,0,0,0-.471.077.4.4,0,0,0,.16.659,5.79,5.79,0,0,0,2.074.465v.756a.2.2,0,0,0,.213.213.207.207,0,0,0,.223-.213V26.87c1.216-.069,2.277-.722,2.277-1.889,0-1.3-1.033-1.668-2.277-1.958V20.717a4.469,4.469,0,0,1,1.453.262.4.4,0,1,0,.271-.746,5.488,5.488,0,0,0-1.725-.32v-.746a.214.214,0,0,0-.223-.223.207.207,0,0,0-.213.223v.756c-1.514.081-2.277.959-2.277,1.977,0,1.244,1.1,1.621,2.277,1.928v2.219A4.646,4.646,0,0,1,30.055,25.669Zm2.2-1.735c.615.163,1.405.376,1.405.989q0,1.017-1.405,1.114Zm-1.841-2.1c0-.707.7-1.03,1.405-1.095v2.18C31.145,22.747,30.413,22.527,30.413,21.832Z" transform="translate(-0.504 -0.502)" fill="#76b82b"/>
</symbol>


<symbol id="patents" xmlns="http://www.w3.org/2000/svg" viewBox="0 0 35.957 49.192">
  <path id="rewards" d="M104.151,3.887a2.854,2.854,0,0,0-2.176-1.005H99.51c-.027-.242-.056-.477-.088-.7A2.55,2.55,0,0,0,96.907,0H76.8a2.55,2.55,0,0,0-2.516,2.18c-.032.225-.061.46-.088.7H71.735A2.859,2.859,0,0,0,68.913,6.2l.54,3.345A15.033,15.033,0,0,0,80.392,21.674a24.493,24.493,0,0,0,3.167,2.849,2.4,2.4,0,0,0,.412,4.365,10.027,10.027,0,0,1-.813,3.047A10.617,10.617,0,0,1,78.786,36.7H78.5a1.683,1.683,0,0,0-1.681,1.681v6h-1.2a1.683,1.683,0,0,0-1.681,1.681V47.51a1.683,1.683,0,0,0,1.681,1.681H98.1a1.683,1.683,0,0,0,1.681-1.681V46.069A1.683,1.683,0,0,0,98.1,44.388h-1.2v-6A1.683,1.683,0,0,0,95.214,36.7h-.29a10.616,10.616,0,0,1-4.372-4.766,10.026,10.026,0,0,1-.813-3.047,2.4,2.4,0,0,0,.412-4.365,24.494,24.494,0,0,0,3.167-2.849,15.033,15.033,0,0,0,10.94-12.132L104.8,6.2A2.855,2.855,0,0,0,104.151,3.887ZM70.876,9.312l-.54-3.345a1.418,1.418,0,0,1,1.4-1.644h2.348A23.654,23.654,0,0,0,76.06,15.137a23.275,23.275,0,0,0,2.525,4.356A13.6,13.6,0,0,1,70.876,9.312ZM98.1,45.829a.24.24,0,0,1,.24.24V47.51a.24.24,0,0,1-.24.24H75.614a.24.24,0,0,1-.24-.24V46.069a.24.24,0,0,1,.24-.24ZM94.73,38.143h.483a.24.24,0,0,1,.24.24v6h-17.2v-6a.24.24,0,0,1,.24-.24H94.73ZM92.425,36.7H81.285a11.672,11.672,0,0,0,3.189-4.178,11.463,11.463,0,0,0,.935-3.508H88.3a11.462,11.462,0,0,0,.935,3.508A11.672,11.672,0,0,0,92.425,36.7Zm-3.456-9.127H84.741a.961.961,0,1,1,0-1.922h.639c.022,0,.045,0,.067,0h3.521a.961.961,0,0,1,0,1.922Zm-.883-3.363H85.624a22.542,22.542,0,0,1-8.246-9.658A22.376,22.376,0,0,1,75.714,2.381a1.1,1.1,0,0,1,1.089-.94h20.1A1.1,1.1,0,0,1,98,2.381a22.375,22.375,0,0,1-1.664,12.172A22.542,22.542,0,0,1,88.086,24.212ZM103.374,5.967l-.54,3.346a13.6,13.6,0,0,1-7.709,10.181,23.274,23.274,0,0,0,2.525-4.356A23.654,23.654,0,0,0,99.627,4.323h2.348a1.418,1.418,0,0,1,1.4,1.643Z" transform="translate(-68.876)" fill="#0095db"/>
</symbol>


<symbol id="jobsIcon" xmlns="http://www.w3.org/2000/svg" viewBox="0 0 40 40">
  <path id="job_1_" data-name="job (1)" d="M8.3,7.831A41.971,41.971,0,0,1,13.476,7.6,6.342,6.342,0,0,1,19.8,1.75h3.9A6.342,6.342,0,0,1,30.024,7.6a41.973,41.973,0,0,1,5.173.226,7.254,7.254,0,0,1,4.41,1.916,7.253,7.253,0,0,1,1.916,4.41,53.529,53.529,0,0,1,.227,6.511v8.019a53.532,53.532,0,0,1-.227,6.511,7.253,7.253,0,0,1-1.916,4.409,7.253,7.253,0,0,1-4.41,1.916,53.532,53.532,0,0,1-6.511.227H14.814A53.531,53.531,0,0,1,8.3,41.523a7.252,7.252,0,0,1-4.41-1.916A7.253,7.253,0,0,1,1.977,35.2a53.5,53.5,0,0,1-.227-6.511V20.667a53.5,53.5,0,0,1,.227-6.511,7.253,7.253,0,0,1,1.916-4.41A7.253,7.253,0,0,1,8.3,7.831ZM27.081,7.6H16.419A3.415,3.415,0,0,1,19.8,4.677h3.9A3.415,3.415,0,0,1,27.081,7.6ZM8.693,38.622a4.4,4.4,0,0,1-2.73-1.085,4.4,4.4,0,0,1-1.085-2.73,52.417,52.417,0,0,1-.2-6.228V22c7.2,3.022,11.4,4.673,15.824,4.879q1.248.058,2.5,0c4.425-.206,8.627-1.857,15.824-4.879v6.577a52.447,52.447,0,0,1-.2,6.228,4.4,4.4,0,0,1-1.085,2.73,4.4,4.4,0,0,1-2.73,1.085,52.447,52.447,0,0,1-6.228.2H14.921A52.445,52.445,0,0,1,8.693,38.622ZM38.82,18.828c-8.048,3.385-11.919,4.941-15.957,5.129q-1.112.052-2.225,0c-4.038-.188-7.909-1.744-15.957-5.129a35.452,35.452,0,0,1,.2-4.282,4.4,4.4,0,0,1,1.085-2.73,4.4,4.4,0,0,1,2.73-1.085,52.415,52.415,0,0,1,6.228-.2H28.579a52.417,52.417,0,0,1,6.228.2,4.4,4.4,0,0,1,2.73,1.085,4.4,4.4,0,0,1,1.085,2.73A35.49,35.49,0,0,1,38.82,18.828Z" transform="translate(-1.75 -1.75)" fill="#c7d300" fill-rule="evenodd"/>
</symbol>





<symbol id="facebook" xmlns="http://www.w3.org/2000/svg" viewBox="0 0 20 20">
  <path id="Path_12248" data-name="Path 12248" d="M887.25,571a10,10,0,1,0-10,10l.176,0v-7.785h-2.149v-2.5h2.149v-1.843a3.008,3.008,0,0,1,3.21-3.3,17.614,17.614,0,0,1,1.926.1V567.9h-1.314c-1.037,0-1.238.493-1.238,1.216v1.595h2.48l-.323,2.5H880.01v7.4A10.006,10.006,0,0,0,887.25,571Zm0,0" transform="translate(-867.25 -561)" />
</symbol>


<symbol id="twitter" data-name="Group 118" xmlns="http://www.w3.org/2000/svg" viewBox="0 0 20 20">
  <path id="Path_12252" data-name="Path 12252" d="M437,128a10,10,0,1,0,10,10,10,10,0,0,0-10-10Zm4.566,7.8q.007.148.007.3a6.486,6.486,0,0,1-6.531,6.531h0a6.5,6.5,0,0,1-3.518-1.031,4.668,4.668,0,0,0,.547.032,4.606,4.606,0,0,0,2.851-.983,2.3,2.3,0,0,1-2.144-1.594,2.288,2.288,0,0,0,1.037-.039,2.3,2.3,0,0,1-1.841-2.25c0-.01,0-.02,0-.029a2.28,2.28,0,0,0,1.04.287,2.3,2.3,0,0,1-.711-3.064,6.517,6.517,0,0,0,4.731,2.4,2.3,2.3,0,0,1,3.911-2.093,4.6,4.6,0,0,0,1.458-.557,2.3,2.3,0,0,1-1.009,1.27,4.578,4.578,0,0,0,1.318-.361,4.666,4.666,0,0,1-1.145,1.189Zm0,0" transform="translate(-427 -128)" />
</symbol>




<symbol id="instagram" data-name="Group 119" xmlns="http://www.w3.org/2000/svg" viewBox="0 0 20 20">
  <path id="Path_12253" data-name="Path 12253" d="M637.846,336.923A1.923,1.923,0,1,1,635.923,335a1.923,1.923,0,0,1,1.923,1.923Zm0,0" transform="translate(-625.923 -326.923)" />
  <path id="Path_12254" data-name="Path 12254" d="M571.712,264.815a1.91,1.91,0,0,0-1.1-1.1,3.193,3.193,0,0,0-1.071-.2c-.608-.028-.791-.034-2.331-.034s-1.723.006-2.331.034a3.2,3.2,0,0,0-1.071.2,1.911,1.911,0,0,0-1.1,1.1,3.2,3.2,0,0,0-.2,1.071c-.028.608-.034.791-.034,2.331s.006,1.723.034,2.331a3.194,3.194,0,0,0,.2,1.071,1.911,1.911,0,0,0,1.095,1.1,3.19,3.19,0,0,0,1.071.2c.608.028.791.034,2.331.034s1.723-.006,2.331-.034a3.189,3.189,0,0,0,1.071-.2,1.911,1.911,0,0,0,1.1-1.1,3.2,3.2,0,0,0,.2-1.071c.028-.609.034-.791.034-2.331s-.006-1.723-.034-2.331a3.184,3.184,0,0,0-.2-1.071Zm-4.5,6.365a2.963,2.963,0,1,1,2.963-2.963,2.963,2.963,0,0,1-2.963,2.963Zm3.08-5.35a.692.692,0,1,1,.692-.692.692.692,0,0,1-.692.692Zm0,0" transform="translate(-557.214 -258.218)" />
  <path id="Path_12255" data-name="Path 12255" d="M437,128a10,10,0,1,0,10,10,10,10,0,0,0-10-10Zm5.708,12.367a4.213,4.213,0,0,1-.267,1.394,2.936,2.936,0,0,1-1.679,1.679,4.216,4.216,0,0,1-1.394.267c-.612.028-.808.035-2.367.035s-1.755-.007-2.368-.035a4.215,4.215,0,0,1-1.394-.267,2.936,2.936,0,0,1-1.679-1.679,4.212,4.212,0,0,1-.267-1.394c-.028-.612-.035-.808-.035-2.368s.007-1.755.035-2.367a4.215,4.215,0,0,1,.267-1.394,2.938,2.938,0,0,1,1.68-1.679,4.217,4.217,0,0,1,1.394-.267c.612-.028.808-.035,2.367-.035s1.755.007,2.367.035a4.218,4.218,0,0,1,1.394.267,2.937,2.937,0,0,1,1.679,1.68,4.214,4.214,0,0,1,.267,1.394c.028.612.034.808.034,2.367s-.007,1.755-.035,2.367Zm0,0" transform="translate(-427 -128)" />
</symbol>

<symbol id="linkedin" data-name="Group 117" xmlns="http://www.w3.org/2000/svg" viewBox="0 0 20 20">
  <path id="Path_12251" data-name="Path 12251" d="M761.5,561a10,10,0,1,0,10,10,10,10,0,0,0-10-10Zm-2.906,15.117h-2.435V568.79h2.435Zm-1.218-8.328h-.016a1.391,1.391,0,1,1,.016,0Zm10,8.328h-2.435V572.2c0-.985-.353-1.657-1.234-1.657a1.333,1.333,0,0,0-1.249.891,1.667,1.667,0,0,0-.08.594v4.092h-2.435s.032-6.64,0-7.327h2.435v1.037a2.418,2.418,0,0,1,2.195-1.209c1.6,0,2.8,1.047,2.8,3.3Zm0,0" transform="translate(-751.5 -561)" />
</symbol>





<symbol id="successTichet" xmlns="http://www.w3.org/2000/svg" viewBox="0 0 123.437 36.5">
  <g id="airbnb" transform="translate(0)">
    <path id="Shape" d="M26.5,36.427a10.565,10.565,0,0,1-3.856-1.242,20.053,20.053,0,0,1-4.781-3.8,19.334,19.334,0,0,1-4.782,3.8A10.561,10.561,0,0,1,9.22,36.427a9.133,9.133,0,0,1-1,.073,8.291,8.291,0,0,1-3.124-.585A7.61,7.61,0,0,1,.544,25.9q.288-.712.578-1.315c.309-.657.618-1.278.887-1.863l.039-.072C4.708,17.172,7.6,11.619,10.569,6.139l.116-.22q.473-.853.925-1.717A12.441,12.441,0,0,1,13,2.192,6.621,6.621,0,0,1,17.934,0a6.359,6.359,0,0,1,4.9,2.265,10.453,10.453,0,0,1,1.389,2.01q.45.865.925,1.717l.116.22c3.008,5.48,5.861,11.033,8.523,16.513l.038.037c.269.584.578,1.206.887,1.863.192.4.386.877.578,1.316a6.581,6.581,0,0,1,.349,3.909,7.835,7.835,0,0,1-5.013,6.065A8.148,8.148,0,0,1,27.5,36.5,9,9,0,0,1,26.5,36.427Zm85.72-10.375v.621a.537.537,0,0,1-.539.512h-3.124V6.833h3.7v7.709a4.921,4.921,0,0,1,3.741-1.462,7.238,7.238,0,1,1-.039,14.47A4.872,4.872,0,0,1,112.215,26.051Zm-31.62,0v.621a.537.537,0,0,1-.54.512H76.932V6.833h3.7v7.709a4.921,4.921,0,0,1,3.74-1.462,7.238,7.238,0,1,1-.039,14.47A4.872,4.872,0,0,1,80.595,26.051ZM43.5,20.314A7.19,7.19,0,0,1,50.98,13.08a4.917,4.917,0,0,1,3.74,1.462v-.585a.54.54,0,0,1,.541-.513h3.123V27.183H55.26a.514.514,0,0,1-.541-.511v-.621a4.775,4.775,0,0,1-3.74,1.5A7.188,7.188,0,0,1,43.5,20.314Zm59.423,6.906V19.438c0-2.265-.771-3.179-2.853-3.179a4.241,4.241,0,0,0-3.009,1.352v9.573h-3.7V13.446h2.93a.537.537,0,0,1,.54.512v.585a5.475,5.475,0,0,1,3.933-1.462,6.216,6.216,0,0,1,4.05,1.316c1.31,1.023,1.813,2.338,1.813,4.64V27.22Zm-36.21,0V13.446h3.124a.536.536,0,0,1,.539.511v.585a5.194,5.194,0,0,1,3.355-1.462,6.191,6.191,0,0,1,1.7.183v3.252s-3.085-.987-5.013,1.1V27.22ZM60.7,27.184V13.446h3.7V27.184ZM60.042,9.171A2.414,2.414,0,0,1,62.548,6.8a2.461,2.461,0,0,1,2.507,2.375,2.51,2.51,0,0,1-5.014,0Z" transform="translate(0)" fill="#fff"/>
  </g>
</symbol>





</svg>